<svg xmlns="http://www.w3.org/2000/svg" viewBox="20 107.78485192230724 535 359.4299088496987"> <g transform="rotate(0 287.4995931585305 228.20000166457208)"><svg xmlns="http://www.w3.org/2000/svg" xmlns:xlink="http://www.w3.org/1999/xlink" version="1.1" id="Layer_1" x="214.1951132082154" y="177.78485192230724" viewBox="224.89999389648438 310.79998779296875 550.199951171875 378.4000244140625" xml:space="preserve" height="100.8302994845297" width="146.60895990063025" preserveAspectRatio="xMinYMin" enable-background="new 0 0 1000 1000" style="overflow: visible;"><linearGradient id="SVGID_1_" gradientUnits="userSpaceOnUse" x1="807.1211" y1="408.281" x2="349.8247" y2="787.568" style=""><stop offset="0" style="stop-color: #E8E9EA;"></stop><stop offset="0.1858" style="stop-color: #F7F7F7;"></stop><stop offset="1" style="stop-color: #D6D7D8;"></stop></linearGradient><path class="st0" d="M775.1,491.8h-11.3c-9.3,0-20.5-4-20.5-22.8V366.8c0-33.9-17.6-51.1-52.3-51.1h-12.9v19h8.5    c21.5,0,32.9,11.9,32.9,34.5v99.3c0,4.6,0.3,8.4,1,11.7c1.2,5.5,3.2,9.7,6,12.9c2.7,2.8,6.2,4.7,10.2,6.1    c3.3,0.8,10.1,0.7,9.5,0.7v0.1c0.6,0-6.2-0.1-9.5,0.7c-4.1,1-7.5,3-10.2,6.1c-2.8,3.2-4.8,7.4-6,12.9c-0.6,3.3-1,7.2-1,11.7v99.3    c0,22.6-11.4,34.5-32.9,34.5h-8.5v19h12.9c34.7,0,52.3-17.2,52.3-51.1V531.1c0-18.9,11.1-22.8,20.5-22.8h11.3v-16.4h-0.3" style="fill: url(#SVGID_1_);"></path><linearGradient id="SVGID_2_" gradientUnits="userSpaceOnUse" x1="1349.2133" y1="408.281" x2="891.9169" y2="787.568" gradientTransform="matrix(-1 0 0 1 1542.0923 0)" style=""><stop offset="0" style="stop-color: #E8E9EA;"></stop><stop offset="0.1858" style="stop-color: #F7F7F7;"></stop><stop offset="1" style="stop-color: #D6D7D8;"></stop></linearGradient><path class="st1" d="M225.2,491.9h-0.3v16.4h11.3c9.3,0,20.5,4,20.5,22.8v102.1c0,33.9,17.6,51.1,52.3,51.1h12.9v-19h-8.5    c-21.5,0-32.9-11.9-32.9-34.5v-99.3c0-4.6-0.3-8.4-1-11.7c-1.2-5.5-3.2-9.7-6-12.9c-2.7-3-6.1-5-10.2-6.1    c-3.3-0.8-10.1-0.7-9.5-0.7v-0.1c-0.6,0,6.2,0.1,9.5-0.7c4.1-1.4,7.5-3.2,10.2-6.1c2.8-3.2,4.8-7.4,6-12.9c0.6-3.3,1-7.2,1-11.7    v-99.3c0-22.6,11.4-34.5,32.9-34.5h8.5v-19h-12.9c-34.7,0-52.3,17.2-52.3,51.1v102.1c0,18.9-11.1,22.8-20.5,22.8h-11.3" style="fill: url(#SVGID_2_);"></path><radialGradient id="SVGID_3_" cx="119.3924" cy="464.4199" r="147.9641" gradientTransform="matrix(-1 0 0 1 899.3679 0)" gradientUnits="userSpaceOnUse" style=""><stop offset="0" style="stop-color: #006BF3;"></stop><stop offset="1" style="stop-color: #3BBFF5;"></stop></radialGradient><polygon class="st2" points="774.3,514 774.3,517.3 594.4,588.4 594.4,555 737,500 594.4,445    " style="fill: url(#SVGID_3_);"></polygon><radialGradient id="SVGID_4_" cx="303.382" cy="436.5198" r="168.8579" gradientTransform="matrix(-1 0 0 1 899.3679 0)" gradientUnits="userSpaceOnUse" style=""><stop offset="0" style="stop-color: #006BF3;"></stop><stop offset="1" style="stop-color: #3BBFF5;"></stop></radialGradient><polygon class="st3" points="594.4,411.6 774.3,482.7 774.3,514 594.4,445    " style="fill: url(#SVGID_4_);"></polygon><radialGradient id="SVGID_5_" cx="220.0245" cy="464.4199" r="147.9641" gradientUnits="userSpaceOnUse" style=""><stop offset="0" style="stop-color: #006BF3;"></stop><stop offset="1" style="stop-color: #3BBFF5;"></stop></radialGradient><polygon class="st4" points="225.7,514 225.7,517.3 405.6,588.4 405.6,555 263,500 405.6,445    " style="fill: url(#SVGID_5_);"></polygon><radialGradient id="SVGID_6_" cx="404.014" cy="436.5198" r="168.8579" gradientUnits="userSpaceOnUse" style=""><stop offset="0" style="stop-color: #006BF3;"></stop><stop offset="1" style="stop-color: #3BBFF5;"></stop></radialGradient><polygon class="st5" points="405.6,411.6 225.7,482.7 225.7,514 405.6,445    " style="fill: url(#SVGID_6_);"></polygon><radialGradient id="SVGID_7_" cx="484.3304" cy="500" r="141.7354" gradientUnits="userSpaceOnUse" style=""><stop offset="0" style="stop-color: #006BF3;"></stop><stop offset="1" style="stop-color: #3BBFF5;"></stop></radialGradient><polygon class="st6" points="418.1,689.2 453,689.2 550.6,310.8    " style="fill: url(#SVGID_7_);"></polygon><radialGradient id="SVGID_8_" cx="574.2761" cy="300.9293" r="395.0675" gradientUnits="userSpaceOnUse" style=""><stop offset="0" style="stop-color: #006BF3;"></stop><stop offset="1" style="stop-color: #3BBFF5;"></stop></radialGradient><polygon class="st7" points="550.6,310.8 453,689.2 585.5,310.8    " style="fill: url(#SVGID_8_);"></polygon></svg></g> <svg xmlns="http://www.w3.org/2000/svg" y="381.8847598946255" viewBox="0.8300000429153442 3.700000047683716 395 15.330000877380371" x="90" height="15.330000877380371" width="395" style="overflow: visible;"><g fill="#52bcff" fill-opacity="1" style=""><path d="M2.65 19.03L0.83 19.03L0.83 19.03L0.83 6.61L7.82 6.61Q8.37 6.61 8.84 6.89Q9.31 7.18 9.59 7.64Q9.86 8.10 9.86 8.67L9.86 8.67L9.86 13.45Q9.86 14.02 9.59 14.48Q9.31 14.94 8.84 15.22Q8.37 15.51 7.82 15.51L7.82 15.51L2.65 15.51L2.65 19.03ZM2.94 13.68L2.94 13.68L7.76 13.68Q7.87 13.68 7.95 13.60Q8.04 13.51 8.04 13.39L8.04 13.39L8.04 8.73Q8.04 8.60 7.95 8.52Q7.87 8.44 7.76 8.44L7.76 8.44L2.94 8.44Q2.84 8.44 2.75 8.52Q2.65 8.60 2.65 8.73L2.65 8.73L2.65 13.39Q2.65 13.51 2.75 13.60Q2.84 13.68 2.94 13.68ZM16.24 15.51L16.24 15.51Q15.67 15.51 15.21 15.22Q14.75 14.94 14.47 14.48Q14.19 14.02 14.19 13.45L14.19 13.45L14.19 8.67Q14.19 8.10 14.47 7.64Q14.75 7.18 15.21 6.89Q15.67 6.61 16.24 6.61L16.24 6.61L21.17 6.61Q21.75 6.61 22.21 6.89Q22.67 7.18 22.94 7.64Q23.22 8.10 23.22 8.67L23.22 8.67L23.22 11.98L16.01 11.98L16.01 13.39Q16.01 13.51 16.10 13.60Q16.18 13.68 16.30 13.68L16.30 13.68L23.22 13.68L23.22 15.51L16.24 15.51ZM16.01 8.73L16.01 10.31L21.40 10.31L21.40 8.73Q21.40 8.60 21.31 8.52Q21.23 8.44 21.10 8.44L21.10 8.44L16.30 8.44Q16.18 8.44 16.10 8.52Q16.01 8.60 16.01 8.73L16.01 8.73ZM29.77 15.51L27.94 15.51L27.94 15.51L27.94 8.67Q27.94 8.10 28.23 7.64Q28.51 7.18 28.98 6.89Q29.45 6.61 30.00 6.61L30.00 6.61L34.95 6.61L34.95 8.44L30.06 8.44Q29.94 8.44 29.85 8.52Q29.77 8.60 29.77 8.73L29.77 8.73L29.77 15.51ZM41.29 15.51L41.29 15.51Q40.72 15.51 40.26 15.22Q39.80 14.94 39.52 14.48Q39.23 14.02 39.23 13.45L39.23 13.45L39.23 13.16L41.06 13.16L41.06 13.39Q41.06 13.51 41.14 13.60Q41.23 13.68 41.35 13.68L41.35 13.68L46.15 13.68Q46.27 13.68 46.36 13.60Q46.44 13.51 46.44 13.39L46.44 13.39L46.44 12.25Q46.44 12.15 46.36 12.06Q46.27 11.98 46.15 11.98L46.15 11.98L41.29 11.98Q40.72 11.98 40.26 11.69Q39.80 11.41 39.52 10.95Q39.23 10.49 39.23 9.92L39.23 9.92L39.23 8.67Q39.23 8.10 39.52 7.64Q39.80 7.18 40.26 6.89Q40.72 6.61 41.29 6.61L41.29 6.61L46.21 6.61Q46.79 6.61 47.25 6.89Q47.71 7.18 48.00 7.64Q48.28 8.10 48.28 8.67L48.28 8.67L48.28 8.96L46.44 8.96L46.44 8.73Q46.44 8.60 46.36 8.52Q46.27 8.44 46.15 8.44L46.15 8.44L41.35 8.44Q41.23 8.44 41.14 8.52Q41.06 8.60 41.06 8.73L41.06 8.73L41.06 9.86Q41.06 9.97 41.14 10.05Q41.23 10.14 41.35 10.14L41.35 10.14L46.21 10.14Q46.79 10.14 47.25 10.42Q47.71 10.71 48.00 11.17Q48.28 11.63 48.28 12.19L48.28 12.19L48.28 13.45Q48.28 14.02 48.00 14.48Q47.71 14.94 47.25 15.22Q46.79 15.51 46.21 15.51L46.21 15.51L41.29 15.51ZM54.86 15.51L53.04 15.51L53.04 15.51L53.04 6.61L54.86 6.61L54.86 15.51ZM54.86 5.54L53.04 5.54L53.04 5.54L53.04 3.70L54.86 3.70L54.86 5.54ZM61.93 15.51L61.93 15.51Q61.36 15.51 60.90 15.22Q60.44 14.94 60.16 14.48Q59.88 14.02 59.88 13.45L59.88 13.45L59.88 13.16L61.70 13.16L61.70 13.39Q61.70 13.51 61.79 13.60Q61.87 13.68 61.99 13.68L61.99 13.68L66.79 13.68Q66.92 13.68 67.00 13.60Q67.08 13.51 67.08 13.39L67.08 13.39L67.08 12.25Q67.08 12.15 67.00 12.06Q66.92 11.98 66.79 11.98L66.79 11.98L61.93 11.98Q61.36 11.98 60.90 11.69Q60.44 11.41 60.16 10.95Q59.88 10.49 59.88 9.92L59.88 9.92L59.88 8.67Q59.88 8.10 60.16 7.64Q60.44 7.18 60.90 6.89Q61.36 6.61 61.93 6.61L61.93 6.61L66.85 6.61Q67.44 6.61 67.90 6.89Q68.36 7.18 68.64 7.64Q68.92 8.10 68.92 8.67L68.92 8.67L68.92 8.96L67.08 8.96L67.08 8.73Q67.08 8.60 67.00 8.52Q66.92 8.44 66.79 8.44L66.79 8.44L61.99 8.44Q61.87 8.44 61.79 8.52Q61.70 8.60 61.70 8.73L61.70 8.73L61.70 9.86Q61.70 9.97 61.79 10.05Q61.87 10.14 61.99 10.14L61.99 10.14L66.85 10.14Q67.44 10.14 67.90 10.42Q68.36 10.71 68.64 11.17Q68.92 11.63 68.92 12.19L68.92 12.19L68.92 13.45Q68.92 14.02 68.64 14.48Q68.36 14.94 67.90 15.22Q67.44 15.51 66.85 15.51L66.85 15.51L61.93 15.51ZM75.75 15.51L75.75 15.51Q75.18 15.51 74.71 15.22Q74.25 14.94 73.97 14.48Q73.69 14.02 73.69 13.45L73.69 13.45L73.69 3.83L75.52 3.83L75.52 6.61L79.08 6.61L79.08 8.44L75.52 8.44L75.52 13.39Q75.52 13.51 75.60 13.60Q75.69 13.68 75.81 13.68L75.81 13.68L79.08 13.68L79.08 15.51L75.75 15.51ZM85.57 15.51L85.57 15.51Q85.00 15.51 84.54 15.22Q84.08 14.94 83.79 14.48Q83.51 14.02 83.51 13.45L83.51 13.45L83.51 8.67Q83.51 8.10 83.79 7.64Q84.08 7.18 84.54 6.89Q85.00 6.61 85.57 6.61L85.57 6.61L90.49 6.61Q91.07 6.61 91.53 6.89Q91.99 7.18 92.27 7.64Q92.54 8.10 92.54 8.67L92.54 8.67L92.54 11.98L85.33 11.98L85.33 13.39Q85.33 13.51 85.42 13.60Q85.50 13.68 85.63 13.68L85.63 13.68L92.54 13.68L92.54 15.51L85.57 15.51ZM85.33 8.73L85.33 10.31L90.72 10.31L90.72 8.73Q90.72 8.60 90.63 8.52Q90.55 8.44 90.43 8.44L90.43 8.44L85.63 8.44Q85.50 8.44 85.42 8.52Q85.33 8.60 85.33 8.73L85.33 8.73ZM99.21 15.51L97.39 15.51L97.39 15.51L97.39 6.61L104.38 6.61Q104.94 6.61 105.40 6.89Q105.87 7.18 106.15 7.64Q106.42 8.10 106.42 8.67L106.42 8.67L106.42 15.51L104.60 15.51L104.60 8.73Q104.60 8.60 104.51 8.52Q104.43 8.44 104.32 8.44L104.32 8.44L99.51 8.44Q99.40 8.44 99.31 8.52Q99.21 8.60 99.21 8.73L99.21 8.73L99.21 15.51ZM112.94 15.51L112.94 15.51Q112.37 15.51 111.91 15.22Q111.45 14.94 111.17 14.48Q110.89 14.02 110.89 13.45L110.89 13.45L110.89 8.67Q110.89 8.10 111.17 7.64Q111.45 7.18 111.91 6.89Q112.37 6.61 112.94 6.61L112.94 6.61L119.90 6.61L119.90 8.44L113.00 8.44Q112.88 8.44 112.80 8.52Q112.71 8.60 112.71 8.73L112.71 8.73L112.71 13.39Q112.71 13.51 112.80 13.60Q112.88 13.68 113.00 13.68L113.00 13.68L119.92 13.68L119.92 15.51L112.94 15.51ZM126.44 15.51L126.44 15.51Q125.87 15.51 125.41 15.22Q124.95 14.94 124.67 14.48Q124.38 14.02 124.38 13.45L124.38 13.45L124.38 8.67Q124.38 8.10 124.67 7.64Q124.95 7.18 125.41 6.89Q125.87 6.61 126.44 6.61L126.44 6.61L131.36 6.61Q131.94 6.61 132.40 6.89Q132.86 7.18 133.14 7.64Q133.42 8.10 133.42 8.67L133.42 8.67L133.42 11.98L126.21 11.98L126.21 13.39Q126.21 13.51 126.29 13.60Q126.38 13.68 126.50 13.68L126.50 13.68L133.42 13.68L133.42 15.51L126.44 15.51ZM126.21 8.73L126.21 10.31L131.59 10.31L131.59 8.73Q131.59 8.60 131.51 8.52Q131.42 8.44 131.30 8.44L131.30 8.44L126.50 8.44Q126.38 8.44 126.29 8.52Q126.21 8.60 126.21 8.73L126.21 8.73ZM140.09 15.51L138.26 15.51L138.26 15.51L138.26 13.68L140.09 13.68L140.09 15.51ZM146.50 15.51L146.50 15.51Q145.93 15.51 145.46 15.22Q145.00 14.94 144.72 14.48Q144.44 14.02 144.44 13.45L144.44 13.45L144.44 8.67Q144.44 8.10 144.72 7.64Q145.00 7.18 145.46 6.89Q145.93 6.61 146.50 6.61L146.50 6.61L151.67 6.61L151.67 3.70L153.49 3.70L153.49 15.51L146.50 15.51ZM146.58 13.68L146.58 13.68L151.38 13.68Q151.50 13.68 151.58 13.60Q151.67 13.51 151.67 13.39L151.67 13.39L151.67 8.73Q151.67 8.60 151.58 8.52Q151.50 8.44 151.38 8.44L151.38 8.44L146.58 8.44Q146.45 8.44 146.37 8.52Q146.28 8.60 146.28 8.73L146.28 8.73L146.28 13.39Q146.28 13.51 146.37 13.60Q146.45 13.68 146.58 13.68ZM160.04 15.51L160.04 15.51Q159.47 15.51 159.01 15.22Q158.55 14.94 158.27 14.48Q157.99 14.02 157.99 13.45L157.99 13.45L157.99 8.67Q157.99 8.10 158.27 7.64Q158.55 7.18 159.01 6.89Q159.47 6.61 160.04 6.61L160.04 6.61L164.96 6.61Q165.55 6.61 166.01 6.89Q166.47 7.18 166.74 7.64Q167.02 8.10 167.02 8.67L167.02 8.67L167.02 11.98L159.81 11.98L159.81 13.39Q159.81 13.51 159.90 13.60Q159.98 13.68 160.10 13.68L160.10 13.68L167.02 13.68L167.02 15.51L160.04 15.51ZM159.81 8.73L159.81 10.31L165.19 10.31L165.19 8.73Q165.19 8.60 165.11 8.52Q165.03 8.44 164.90 8.44L164.90 8.44L160.10 8.44Q159.98 8.44 159.90 8.52Q159.81 8.60 159.81 8.73L159.81 8.73ZM173.45 15.51L173.45 15.51Q172.88 15.51 172.41 15.22Q171.94 14.94 171.67 14.48Q171.39 14.02 171.39 13.45L171.39 13.45L171.39 8.67Q171.39 8.10 171.67 7.64Q171.94 7.18 172.41 6.89Q172.88 6.61 173.45 6.61L173.45 6.61L178.61 6.61L178.61 3.70L180.44 3.70L180.44 15.51L173.45 15.51ZM173.52 13.68L173.52 13.68L178.32 13.68Q178.45 13.68 178.53 13.60Q178.61 13.51 178.61 13.39L178.61 13.39L178.61 8.73Q178.61 8.60 178.53 8.52Q178.45 8.44 178.32 8.44L178.32 8.44L173.52 8.44Q173.40 8.44 173.32 8.52Q173.23 8.60 173.23 8.73L173.23 8.73L173.23 13.39Q173.23 13.51 173.32 13.60Q173.40 13.68 173.52 13.68ZM187.11 15.51L185.29 15.51L185.29 15.51L185.29 6.61L187.11 6.61L187.11 15.51ZM187.11 5.54L185.29 5.54L185.29 5.54L185.29 3.70L187.11 3.70L187.11 5.54ZM193.87 15.51L193.87 15.51Q193.31 15.51 192.85 15.22Q192.39 14.94 192.10 14.48Q191.82 14.02 191.82 13.45L191.82 13.45L191.82 8.67Q191.82 8.10 192.10 7.64Q192.39 7.18 192.85 6.89Q193.31 6.61 193.87 6.61L193.87 6.61L200.84 6.61L200.84 8.44L193.94 8.44Q193.81 8.44 193.73 8.52Q193.64 8.60 193.64 8.73L193.64 8.73L193.64 13.39Q193.64 13.51 193.73 13.60Q193.81 13.68 193.94 13.68L193.94 13.68L200.85 13.68L200.85 15.51L193.87 15.51ZM214.67 15.51L207.69 15.51Q207.13 15.51 206.66 15.22Q206.19 14.94 205.91 14.48Q205.64 14.02 205.64 13.45L205.64 13.45L205.64 10.14L212.85 10.14L212.85 8.73Q212.85 8.60 212.76 8.52Q212.68 8.44 212.56 8.44L212.56 8.44L205.64 8.44L205.64 6.61L212.62 6.61Q213.20 6.61 213.66 6.89Q214.12 7.18 214.40 7.64Q214.67 8.10 214.67 8.67L214.67 8.67L214.67 15.51ZM207.75 13.68L207.75 13.68L212.85 13.68L212.85 11.81L207.46 11.81L207.46 13.39Q207.46 13.51 207.55 13.60Q207.63 13.68 207.75 13.68ZM221.57 15.51L221.57 15.51Q221.01 15.51 220.54 15.22Q220.07 14.94 219.79 14.48Q219.52 14.02 219.52 13.45L219.52 13.45L219.52 3.83L221.34 3.83L221.34 6.61L224.90 6.61L224.90 8.44L221.34 8.44L221.34 13.39Q221.34 13.51 221.43 13.60Q221.51 13.68 221.63 13.68L221.63 13.68L224.90 13.68L224.90 15.51L221.57 15.51ZM231.21 15.51L229.38 15.51L229.38 15.51L229.38 6.61L231.21 6.61L231.21 15.51ZM231.21 5.54L229.38 5.54L229.38 5.54L229.38 3.70L231.21 3.70L231.21 5.54ZM238.00 15.51L238.00 15.51Q237.43 15.51 236.97 15.22Q236.51 14.94 236.23 14.48Q235.94 14.02 235.94 13.45L235.94 13.45L235.94 8.67Q235.94 8.10 236.23 7.64Q236.51 7.18 236.97 6.89Q237.43 6.61 238.00 6.61L238.00 6.61L242.92 6.61Q243.51 6.61 243.97 6.89Q244.43 7.18 244.70 7.64Q244.98 8.10 244.98 8.67L244.98 8.67L244.98 13.45Q244.98 14.02 244.70 14.48Q244.43 14.94 243.97 15.22Q243.51 15.51 242.92 15.51L242.92 15.51L238.00 15.51ZM238.06 13.68L238.06 13.68L242.86 13.68Q242.98 13.68 243.07 13.60Q243.15 13.51 243.15 13.39L243.15 13.39L243.15 8.73Q243.15 8.60 243.07 8.52Q242.98 8.44 242.86 8.44L242.86 8.44L238.06 8.44Q237.94 8.44 237.85 8.52Q237.77 8.60 237.77 8.73L237.77 8.73L237.77 13.39Q237.77 13.51 237.85 13.60Q237.94 13.68 238.06 13.68ZM251.31 15.51L249.49 15.51L249.49 15.51L249.49 6.61L256.48 6.61Q257.03 6.61 257.50 6.89Q257.97 7.18 258.24 7.64Q258.52 8.10 258.52 8.67L258.52 8.67L258.52 15.51L256.70 15.51L256.70 8.73Q256.70 8.60 256.61 8.52Q256.53 8.44 256.42 8.44L256.42 8.44L251.60 8.44Q251.50 8.44 251.40 8.52Q251.31 8.60 251.31 8.73L251.31 8.73L251.31 15.51ZM265.21 15.51L263.38 15.51L263.38 15.51L263.38 13.68L265.21 13.68L265.21 15.51ZM272.05 15.51L272.05 15.51Q271.48 15.51 271.02 15.22Q270.56 14.94 270.28 14.48Q269.99 14.02 269.99 13.45L269.99 13.45L269.99 8.67Q269.99 8.10 270.28 7.64Q270.56 7.18 271.02 6.89Q271.48 6.61 272.05 6.61L272.05 6.61L276.97 6.61Q277.55 6.61 278.01 6.89Q278.47 7.18 278.75 7.64Q279.03 8.10 279.03 8.67L279.03 8.67L279.03 11.98L271.82 11.98L271.82 13.39Q271.82 13.51 271.90 13.60Q271.99 13.68 272.11 13.68L272.11 13.68L279.03 13.68L279.03 15.51L272.05 15.51ZM271.82 8.73L271.82 10.31L277.20 10.31L277.20 8.73Q277.20 8.60 277.12 8.52Q277.03 8.44 276.91 8.44L276.91 8.44L272.11 8.44Q271.99 8.44 271.90 8.52Q271.82 8.60 271.82 8.73L271.82 8.73ZM285.68 15.51L283.86 15.51L283.86 15.51L283.86 5.75Q283.86 5.18 284.13 4.72Q284.41 4.25 284.88 3.97Q285.34 3.70 285.91 3.70L285.91 3.70L289.24 3.70L289.24 5.54L285.97 5.54Q285.85 5.54 285.77 5.62Q285.68 5.71 285.68 5.81L285.68 5.81L285.68 6.61L289.24 6.61L289.24 8.44L285.68 8.44L285.68 15.51ZM295.41 15.51L293.58 15.51L293.58 15.51L293.58 5.75Q293.58 5.18 293.86 4.72Q294.13 4.25 294.60 3.97Q295.07 3.70 295.64 3.70L295.64 3.70L298.96 3.70L298.96 5.54L295.70 5.54Q295.57 5.54 295.49 5.62Q295.41 5.71 295.41 5.81L295.41 5.81L295.41 6.61L298.96 6.61L298.96 8.44L295.41 8.44L295.41 15.51ZM305.11 15.51L303.29 15.51L303.29 15.51L303.29 6.61L305.11 6.61L305.11 15.51ZM305.11 5.54L303.29 5.54L303.29 5.54L303.29 3.70L305.11 3.70L305.11 5.54ZM311.88 15.51L311.88 15.51Q311.31 15.51 310.85 15.22Q310.39 14.94 310.11 14.48Q309.82 14.02 309.82 13.45L309.82 13.45L309.82 8.67Q309.82 8.10 310.11 7.64Q310.39 7.18 310.85 6.89Q311.31 6.61 311.88 6.61L311.88 6.61L318.84 6.61L318.84 8.44L311.94 8.44Q311.82 8.44 311.73 8.52Q311.65 8.60 311.65 8.73L311.65 8.73L311.65 13.39Q311.65 13.51 311.73 13.60Q311.82 13.68 311.94 13.68L311.94 13.68L318.86 13.68L318.86 15.51L311.88 15.51ZM325.54 15.51L323.72 15.51L323.72 15.51L323.72 6.61L325.54 6.61L325.54 15.51ZM325.54 5.54L323.72 5.54L323.72 5.54L323.72 3.70L325.54 3.70L325.54 5.54ZM332.41 15.51L332.41 15.51Q331.85 15.51 331.39 15.22Q330.93 14.94 330.64 14.48Q330.36 14.02 330.36 13.45L330.36 13.45L330.36 8.67Q330.36 8.10 330.64 7.64Q330.93 7.18 331.39 6.89Q331.85 6.61 332.41 6.61L332.41 6.61L337.34 6.61Q337.92 6.61 338.38 6.89Q338.84 7.18 339.12 7.64Q339.39 8.10 339.39 8.67L339.39 8.67L339.39 11.98L332.18 11.98L332.18 13.39Q332.18 13.51 332.27 13.60Q332.35 13.68 332.48 13.68L332.48 13.68L339.39 13.68L339.39 15.51L332.41 15.51ZM332.18 8.73L332.18 10.31L337.57 10.31L337.57 8.73Q337.57 8.60 337.48 8.52Q337.40 8.44 337.28 8.44L337.28 8.44L332.48 8.44Q332.35 8.44 332.27 8.52Q332.18 8.60 332.18 8.73L332.18 8.73ZM346.06 15.51L344.24 15.51L344.24 15.51L344.24 6.61L351.23 6.61Q351.78 6.61 352.25 6.89Q352.72 7.18 353.00 7.64Q353.27 8.10 353.27 8.67L353.27 8.67L353.27 15.51L351.45 15.51L351.45 8.73Q351.45 8.60 351.36 8.52Q351.28 8.44 351.17 8.44L351.17 8.44L346.36 8.44Q346.25 8.44 346.16 8.52Q346.06 8.60 346.06 8.73L346.06 8.73L346.06 15.51ZM359.79 15.51L359.79 15.51Q359.22 15.51 358.76 15.22Q358.30 14.94 358.02 14.48Q357.74 14.02 357.74 13.45L357.74 13.45L357.74 8.67Q357.74 8.10 358.02 7.64Q358.30 7.18 358.76 6.89Q359.22 6.61 359.79 6.61L359.79 6.61L366.75 6.61L366.75 8.44L359.85 8.44Q359.73 8.44 359.64 8.52Q359.56 8.60 359.56 8.73L359.56 8.73L359.56 13.39Q359.56 13.51 359.64 13.60Q359.73 13.68 359.85 13.68L359.85 13.68L366.77 13.68L366.77 15.51L359.79 15.51ZM378.47 18.85L373.00 18.85L373.00 18.85L373.00 17.01L378.41 17.01Q378.52 17.01 378.60 16.92Q378.69 16.84 378.69 16.73L378.69 16.73L378.69 15.51L373.53 15.51Q372.98 15.51 372.51 15.22Q372.04 14.94 371.76 14.48Q371.48 14.02 371.48 13.45L371.48 13.45L371.48 6.64L373.30 6.64L373.30 13.39Q373.30 13.51 373.39 13.60Q373.47 13.68 373.59 13.68L373.59 13.68L378.41 13.68Q378.52 13.68 378.60 13.60Q378.69 13.51 378.69 13.39L378.69 13.39L378.69 6.64L380.51 6.64L380.51 16.79Q380.51 17.38 380.24 17.84Q379.97 18.30 379.51 18.57Q379.04 18.85 378.47 18.85L378.47 18.85ZM387.41 15.51L387.41 15.51Q386.84 15.51 386.38 15.22Q385.91 14.94 385.63 14.48Q385.36 14.02 385.36 13.45L385.36 13.45L385.36 6.52Q385.36 5.95 385.63 5.48Q385.91 5.02 386.38 4.74Q386.84 4.46 387.41 4.46L387.41 4.46L388.15 4.46L388.15 6.30L387.47 6.30Q387.35 6.30 387.27 6.39Q387.18 6.47 387.18 6.58L387.18 6.58L387.18 13.39Q387.18 13.51 387.27 13.60Q387.35 13.68 387.47 13.68L387.47 13.68L388.15 13.68L388.15 15.51L387.41 15.51ZM393.78 15.51L393.03 15.51L393.03 15.51L393.03 13.68L393.70 13.68Q393.81 13.68 393.89 13.60Q393.98 13.51 393.98 13.39L393.98 13.39L393.98 6.58Q393.98 6.47 393.89 6.39Q393.81 6.30 393.70 6.30L393.70 6.30L393.03 6.30L393.03 4.46L393.78 4.46Q394.33 4.46 394.80 4.74Q395.26 5.02 395.55 5.48Q395.83 5.95 395.83 6.52L395.83 6.52L395.83 13.45Q395.83 14.02 395.55 14.48Q395.26 14.94 394.80 15.22Q394.33 15.51 393.78 15.51L393.78 15.51Z" transform="translate(0, 0)"></path></g></svg> <svg xmlns="http://www.w3.org/2000/svg" y="295.4077468635797" viewBox="4.130000114440918 22.260000228881836 353.72998046875 72.66999816894531" x="110.63501552621221" height="72.66999816894531" width="353.72998046875" style="overflow: visible;"><g fill="#ffffff" fill-opacity="1" style=""><path d="M15.84 94.93L4.13 94.93L4.13 94.93L4.13 32.97L38.02 32.97Q41.08 32.97 43.60 34.50Q46.13 36.03 47.62 38.56Q49.11 41.08 49.11 44.06L49.11 44.06L49.11 66.25Q49.11 69.23 47.62 71.76Q46.13 74.28 43.60 75.81Q41.08 77.34 38.02 77.34L38.02 77.34L15.84 77.34L15.84 94.93ZM15.84 65.64L15.84 65.64L37.41 65.64Q37.41 65.64 37.41 65.64Q37.41 65.64 37.41 65.64L37.41 65.64L37.41 44.68Q37.41 44.68 37.41 44.68Q37.41 44.68 37.41 44.68L37.41 44.68L15.84 44.68Q15.84 44.68 15.84 44.68Q15.84 44.68 15.84 44.68L15.84 44.68L15.84 65.64Q15.84 65.64 15.84 65.64Q15.84 65.64 15.84 65.64ZM106.56 77.34L62.88 77.34L62.88 22.26L106.56 22.26Q109.70 22.26 112.26 23.79Q114.82 25.32 116.39 27.88Q117.96 30.45 117.96 33.58L117.96 33.58L117.96 66.02Q117.96 69.08 116.39 71.68Q114.82 74.28 112.26 75.81Q109.70 77.34 106.56 77.34L106.56 77.34ZM74.66 65.41L74.66 65.41L105.95 65.41Q105.95 65.41 105.95 65.41Q105.95 65.41 105.95 65.41L105.95 65.41L105.95 34.19Q105.95 34.19 105.95 34.19Q105.95 34.19 105.95 34.19L105.95 34.19L74.66 34.19Q74.66 34.19 74.66 34.19Q74.66 34.19 74.66 34.19L74.66 34.19L74.66 65.41Q74.66 65.41 74.66 65.41Q74.66 65.41 74.66 65.41ZM144.89 77.34L144.89 77.34Q141.91 77.34 139.38 75.81Q136.86 74.28 135.33 71.76Q133.80 69.23 133.80 66.25L133.80 66.25L133.80 44.06Q133.80 41.08 135.33 38.56Q136.86 36.03 139.38 34.50Q141.91 32.97 144.89 32.97L144.89 32.97L167.69 32.97Q170.74 32.97 173.27 34.50Q175.79 36.03 177.29 38.56Q178.78 41.08 178.78 44.06L178.78 44.06L178.78 61.05L145.50 61.05L145.50 65.64Q145.50 65.64 145.50 65.64Q145.50 65.64 145.50 65.64L145.50 65.64L178.78 65.64L178.78 77.34L144.89 77.34ZM145.50 44.68L145.50 50.80L167.07 50.80L167.07 44.68Q167.07 44.68 167.07 44.68Q167.07 44.68 167.07 44.68L167.07 44.68L145.50 44.68Q145.50 44.68 145.50 44.68Q145.50 44.68 145.50 44.68L145.50 44.68ZM206.32 77.34L194.61 77.34L194.61 77.34L194.61 65.64L206.32 65.64L206.32 77.34ZM231.03 77.34L231.03 77.34Q227.97 77.34 225.44 75.81Q222.92 74.28 221.43 71.76Q219.93 69.23 219.93 66.25L219.93 66.25L219.93 33.35Q219.93 30.29 221.43 27.77Q222.92 25.24 225.44 23.75Q227.97 22.26 231.03 22.26L231.03 22.26L236.07 22.26L236.07 33.97L231.64 33.97Q231.64 33.97 231.64 33.97Q231.64 33.97 231.64 33.97L231.64 33.97L231.64 65.64Q231.64 65.64 231.64 65.64Q231.64 65.64 231.64 65.64L231.64 65.64L236.07 65.64L236.07 77.34L231.03 77.34ZM260.17 77.34L248.47 77.34L248.47 22.26L260.17 22.26L260.17 77.34ZM306.68 77.34L294.75 77.34L294.75 77.34L294.75 34.19L273.18 34.19L273.18 22.26L328.26 22.26L328.26 34.19L306.68 34.19L306.68 77.34ZM346.77 77.34L341.64 77.34L341.64 77.34L341.64 65.64L346.08 65.64Q346.08 65.64 346.08 65.64Q346.08 65.64 346.08 65.64L346.08 65.64L346.08 33.97Q346.08 33.97 346.08 33.97Q346.08 33.97 346.08 33.97L346.08 33.97L341.64 33.97L341.64 22.26L346.77 22.26Q349.75 22.26 352.28 23.75Q354.80 25.24 356.33 27.77Q357.86 30.29 357.86 33.35L357.86 33.35L357.86 66.25Q357.86 69.23 356.33 71.76Q354.80 74.28 352.28 75.81Q349.75 77.34 346.77 77.34L346.77 77.34Z" transform="translate(0, 0)"></path></g></svg></svg>